# xmcd
#
# Track frame offsets: 
#        150
#        26401
#        44388
#        79147
#        102316
#        132185
#        163966
#        192803
#        219238
#        238907
#        261198
#
# Disc length: 3772 seconds
#
# Revision: 2
# Processed by: cddbd v1.5.2PL0 Copyright (c) Steve Scherf et al.
# Submitted via: ExactAudioCopy v0.99pb5
#
DISCID=950eba0b
DTITLE=Assorted - Earth Moods
DYEAR=2008
DGENRE=New Age
TTITLE0=Water
TTITLE1=Ice
TTITLE2=A Dark Night
TTITLE3=The Moon
TTITLE4=Winter
TTITLE5=The Valley
TTITLE6=Body
TTITLE7=Feminity
TTITLE8=Calmness
TTITLE9=The Spirits
TTITLE10=Shadows
EXTD=
EXTT0=
EXTT1=
EXTT2=
EXTT3=
EXTT4=
EXTT5=
EXTT6=
EXTT7=
EXTT8=
EXTT9=
EXTT10=
PLAYORDER=
